<svg width="290" height="221.72" xmlns="http://www.w3.org/2000/svg"><g><path d="M270.37 191.13l.497-11.147a35.998 35.998 0 0 1 16.79-4.25 22.07 22.07 0 0 0-6.592 11.061c-1.797 5.719-2.807 12.04-5.932 17.108a21.653 21.653 0 0 1-15.878 10.006l-6.749 4.132a36.277 36.277 0 0 1 7.648-29.402 35.05 35.05 0 0 1 6.441-5.985c.324.849.663 1.692 1.018 2.528a102.329 102.329 0 0 0 2.758 5.948zM158.507 220.817h-9.534l1.24-22.816 15.01 6.014 74.589 1.831-.044.127-.048.144c-.383 1.164-2.863 9.056-1.027 12.77.092.187.198.367.318.538l.108.152-.21.002-68.424.627c-.166.005-.332.031-.492.077-.614.165-1.296.537-1.865.537-.03 0-.058-.001-.087-.003-3.353-.239-4.288.4-9.158.03l-.376-.03z" fill="#f2f2f2" fill-rule="evenodd"/><path d="M152.657 220.307l-4.587.278-.013-.038a2.888 2.888 0 0 1-.023-.16c-.212-1.641-1.74-15.5 1.507-22.363a9.96 9.96 0 0 1 .694-1.243l.193-.291.15 1.565-1.443 21.24 3.2-1.07c6.288 2.96 13.538 1.945 20.788 1.431a76.787 76.787 0 0 1 5.128-.221l60.548-.224c1.268-.004 2.324.862 2.358 1.932l.004.105-65.593-.006c-1.22 0-2.44-.043-3.657-.13-.587-.04-1.174-.06-1.763-.06-6.082 0-12.259 1.912-17.49-.745z" fill="#ccc" fill-rule="evenodd"/><path d="M235.608 210.441l-68.138-1.354-.07-.026-16.098-6.033.304-.812 16.03 6.008 67.989 1.35-.017.867z" fill="#e6e6e6" fill-rule="evenodd"/><path d="M235.249 214.09l-68.138-1.354-.07-.026-16.098-6.033.304-.812 16.03 6.008 67.989 1.35-.017.867z" fill="#e6e6e6" fill-rule="evenodd"/><path d="M234.88 217.74l-68.138-1.356-.07-.025-16.098-6.034.304-.812 16.03 6.008 67.989 1.352-.017.866zM154.299 200.98l-4.723-2.505.123-1.239a.75.75 0 0 1 .797-.607l.417.005 63.544.935c4.159.052 8.28.8 12.192 2.213l13.845 5.026-.007.074c-.116 1.156-1.272 2.052-2.642 2.052h-.037l-62.593-.734c-.944-.01-1.888-.05-2.83-.117a45.599 45.599 0 0 1-18.086-5.103z" fill="#e6e6e6" fill-rule="evenodd"/><path d="M240.356 205.077h-.014l-76.201-1.747-.053-.024-13.739-6.362.14-.213.417.005 13.362 6.191 75.495 1.729.605.014-.012.407z" fill="#ccc" fill-rule="evenodd"/><path d="M181.126 197.177l-.968-.014-21.838-.323-1.035-.014c4.644 4.943 14.52 6.437 28.903 4.962 1.098-.113 2.196-.24 3.292-.379l-8.354-4.232z" fill="#ccc" fill-rule="evenodd"/><path d="M242.515 70.118l1.333 3.099-2.178 11.005-22.212-3.088.177-13.42.446-2.939 22.434 5.343zM253.997 212.759h-4.9l-2.333-18.902h7.233v18.902z" fill="#ffb6b6" fill-rule="evenodd"/><path d="M241.514 221.249h9.323l1.607-3.318.624 3.318h3.514l-.988-11.85-1.597-.093-5.367-.32-.865-.053v3.356l-7.44 5.14a2.096 2.096 0 0 0 1.189 3.82z" fill="#2f2e41" fill-rule="evenodd"/><path d="M208.7 191.089h-4.901l-2.883-27.828 9.208-.55-1.425 28.378z" fill="#ffb6b6" fill-rule="evenodd"/><path d="M196.216 199.579h9.323l1.607-3.318.624 3.318h3.514l-.988-11.85-1.425-.083-5.46-.33-.944-.054v3.357l-7.441 5.14a2.097 2.097 0 0 0 1.19 3.82zM256.067 196.452h-.02l-.942-30.734a8.032 8.032 0 0 0-.105-7.594l-.135-.244.35-1.622a10.328 10.328 0 0 0-.59-6.217l-.88-28.67c2.973-19.266-10.277-32.19-11.705-33.52a7.797 7.797 0 0 0-.123-.112l1.376-10.67-24.213.55.412 10.12-4.814 16.54a69.677 69.677 0 0 1-3.69 15.942c-5.707 16.386-15.287 29.735-13.306 47.845a45.989 45.989 0 0 0 .003.054.45.45 0 0 1-.03.164 6.024 6.024 0 0 0 .486 4.864c.108.186.182.39.22.603.527 4.093.601-.984 1.287 2.874l.023.131-.137.07a.81.81 0 0 0-.474.474c-.118.283-.132.65-.015 1.018l.013.042c.198.572.652.953 1.087.953.08 0 .159-.013.234-.039l12.943.139c.496-.172.709-.858.475-1.534-.233-.677-.824-1.086-1.32-.915l-.805.407 1.347-4.407.472-.441a2.053 2.053 0 0 0-.26-3.208l1.341-7.162-.19-5.417.392-6.146 16.983-24.609 6.872 33.993 7.018 36.82a1.287 1.287 0 0 0-.402 1.194c.133.624.69 1.067 1.328 1.055h9.528a1.298 1.298 0 0 0 1.25-1.643 1.314 1.314 0 0 0-1.284-.948zM227.338 9.157c-.1.096-.196.196-.292.297l-.058.058a11.979 11.979 0 0 0-3.357 8.322 11.99 11.99 0 0 0 15.164 11.556 11.988 11.988 0 0 0 8.812-11.564 10.31 10.31 0 0 0-4.26-8.393 21.63 21.63 0 0 0-7.728-3.594 12.47 12.47 0 0 0-.747-.176c-1.562-.315-2.774-.215-3.764.153a7.565 7.565 0 0 0-3.386 2.995c-.115.127-.242.24-.38.341m0 .003v-.003m-.003.005s.002 0 .003-.002" fill="#2f2e41" fill-rule="evenodd"/><path d="M186.734 17.226l30.915 25.372 4.722-8.3-31.874-22.33a4.415 4.415 0 0 0-8.742.906 4.391 4.391 0 0 0 4.979 4.352z" fill="#ffb6b6" fill-rule="evenodd"/><path d="M200.227 31.254l8.179-7.875c2.39.162 2.577 1.662 2.414 2.664a3.747 3.747 0 0 1-.041.213l6.573 2.612 17.121 9.837-3.023 9.88-.755 1.498s-.009-.897-4.786-.88h-.138c-5.846.043-21.522-8-21.522-15.931 0-.346.03-.69.09-1.031a3.45 3.45 0 0 1-4.112-.986z" fill="#0e76bc" fill-rule="evenodd"/><path d="M222.61 20.602c0-5.551 4.5-10.052 10.052-10.052s10.052 4.5 10.052 10.052-4.5 10.052-10.052 10.052c-5.551 0-10.052-4.5-10.052-10.052z" fill="#ffb7b7" fill-rule="evenodd"/><path d="M221.484 78.837l18.4 5.136 2.433.678.428.118.236-3.323a2.97 2.97 0 0 0 .653-3.818l-.339-.56 1.976-5.313.192-.526 5.037-13.56.005-.904.01-.934.05-6.517V49.3c0-4.158-1.947-8.077-5.26-10.59a13.065 13.065 0 0 0-5.037-2.36l-.04-.005-1.99-2.678-8.075.806-.668 1.371-.811 1.651-5.853 3.485-2 4.65-1.352 3.145c-2.094 1.504-3.342 3.435-3.7 5.735-.002.006-.003.011-.003.017-.752 4.85 2.616 9.7 3.056 10.308l.008.01.103 5.608-.103.138a4.03 4.03 0 0 0 .197 5.082v.01c.006.292.054.583.466 1.626.055.103.12.2.192.29a.708.708 0 0 0 .044.064c.44.57 1.052.981 1.745 1.175z" fill="#0e76bc" fill-rule="evenodd"/><path d="M238.201 22.351l-.143-3.543-1.895 3.174c-4.32 1.434-8.362.623-12.165-1.165a34.35 34.35 0 0 1-3.644-2.01c-.386-5.992 2.037-9.829 6.545-9.426h.02c.148 0 .259-.143.389-.216a.432.432 0 0 1 .023-.014c.244-.116.492-.225.743-.327a11.061 11.061 0 0 1 4.029-.76c2.823 0 5.54 1.078 7.594 3.014a12.852 12.852 0 0 1 3.743 8.241c.102 1.304.02 2.629-.266 3.915a5.464 5.464 0 0 1-.137-.024 5.464 5.464 0 0 0-.137-.024c-1.568-.279-3.136-.552-4.699-.835z" fill="#2f2e41" fill-rule="evenodd"/><path d="M227.72 8.819l.365.014s11.876-1.88 14.559 12.613c.107.58.196 1.163.267 1.748 0 0-2.977-11.115-15.742-13.68a1.886 1.886 0 0 1-.125-.053c-.038-.024-.086-.048-.134-.072a9.164 9.164 0 0 1 .432-.23c.124-.115.25-.23.379-.34zm-.383.345c.001 0 .003 0 .004-.002" fill="#fd6584" fill-rule="evenodd"/><path d="M241.158 86.257l.551-.981a5.387 5.387 0 0 1 3.244-5.926A3.321 3.321 0 0 1 247 79.17a1.94 1.94 0 0 1 1.41 1.397c.021.106.032.213.032.32 0 .921-.785 1.74-1.579 2.28a11.007 11.007 0 0 1-5.181 1.853 17.852 17.852 0 0 1 5.75 5.161c.35.442.61.95.76 1.494a1.7 1.7 0 0 1-.375 1.572 1.696 1.696 0 0 1-1.74.281 4.037 4.037 0 0 1-1.488-1.088 14.024 14.024 0 0 1-3.431-6.184z" fill="#2f2e41" fill-rule="evenodd"/><path d="M120.763 221.602h168.703a.54.54 0 0 0 0-1.081H120.763a.54.54 0 0 0 0 1.08z" fill="#ccc" fill-rule="evenodd"/><path d="M165.568 82.669v.282c-.408-.476-.818-.95-1.23-1.422a3907.546 3907.546 0 0 0-1.385-1.585 563.198 563.198 0 0 0-3.296-3.708 618.733 618.733 0 0 0-3.346-3.677c-.27-.296-.542-.59-.816-.884a6.356 6.356 0 0 0-.718-.687 2.665 2.665 0 0 0-.878-.485 2.2 2.2 0 0 0-1.13-.012 9.581 9.581 0 0 0-.932.28c-.102.034-.205.068-.307.1a87.532 87.532 0 0 1-1.265.411l-.634.208-1.901.621a.084.084 0 0 1-.11-.046v-.003a.086.086 0 0 1 .06-.117c.21-.067.424-.135.64-.202a352.347 352.347 0 0 1 2.553-.835c.422-.14.846-.277 1.27-.411.393-.15.808-.233 1.228-.246.686.05 1.329.351 1.805.847.258.245.506.501.742.768l.636.69.212.23a482.69 482.69 0 0 1 8.21 9.2l.575.663.017.02zm-17.955-10.64" fill="#fff" fill-rule="evenodd"/><path d="M153.775 71.457l-.349.012A36.86 36.86 0 0 0 163.97 82.2l-9.301-10.078a2.075 2.075 0 0 0-.894-.664z" fill="#fff" fill-rule="evenodd"/><path d="M211.853 116.42l-13.906-74.457a5.515 5.515 0 0 0-5.575-4.462l-9.473.34-1.02.037-4.727.17-1.02.035-3.041.11-61.32 2.201a2.978 2.978 0 0 1-.141.004h-.024l-.116-.001-13.74-.288-5.086-.105-.162-.002-3.753-.08-32.705-.68-8.67-.182-4.276-.088-1.025-.022-4.875-.1-1.022-.023-4.988-.102-1.022-.023-5.48-.115-.86-.017-4.887-.102-.772-.015h-.112a5.5 5.5 0 0 0-5.403 4.592L.076 120.31a5.476 5.476 0 0 0 1.23 4.424 5.47 5.47 0 0 0 4.169 1.927h72.226a5.005 5.005 0 0 1 2.954.975l1.37 1.015a5.522 5.522 0 0 0 3.255 1.074 83.397 83.397 0 0 1 42.565 0h.014a5.438 5.438 0 0 0 3.857-1.604 4.965 4.965 0 0 1 3.248-1.447l71.796-3.783a5.471 5.471 0 0 0 5.093-6.47z" fill="#ccc" fill-rule="evenodd"/><path d="M30.917 98.917l3.788-60.113.568-9.01.996-15.762a6.26 6.26 0 0 1 6.24-5.863h.04l22.96.134c9.673.438 17.684 1.67 24.035 3.697a41.55 41.55 0 0 1 6.31 2.54 24.257 24.257 0 0 1 7.34 5.482 8.286 8.286 0 0 0 6.228 2.78c1.66 0 3.283-.5 4.655-1.437 14.048-9.413 41.752-10.678 59.076-10.445 1.123.015 2.246.037 3.368.066a9.504 9.504 0 0 1 9.257 8.802l.685 8.966.68 8.94 3.926 51.671 1.092 14.375a9.874 9.874 0 0 1 .022 1.075 9.524 9.524 0 0 1-9.86 9.17 261.338 261.338 0 0 0-14.543-.108c-13.26.283-29.077 1.726-41.773 6.136a51.665 51.665 0 0 0-11.34 5.396 9.52 9.52 0 0 1-11.658-.945c-6.45-5.902-20.23-12.897-49.616-14.897-4.362-.291-8.73-.467-13.102-.527a9.52 9.52 0 0 1-9.374-10.123z" fill="#f2f2f2" fill-rule="evenodd"/><path d="M88.367 32.299a58.825 58.825 0 0 0-24.943-5.625c-5.9-.018-11.802.853-17.437 2.651a1.06 1.06 0 0 1-.133.034c-.916.166-1.335-1.105-.675-1.64a.966.966 0 0 1 .319-.17 57.941 57.941 0 0 1 12.36-2.483A60.32 60.32 0 0 1 100.2 37.483c.868.68-.208 1.849-1.104 1.425a1.037 1.037 0 0 1-.197-.123A55.801 55.801 0 0 0 88.367 32.3zM148.846 33.014a57.56 57.56 0 0 0-26.719 6.48c-1.048.547-1.975-1.04-.926-1.591a57.924 57.924 0 0 1 11.714-4.615 60.475 60.475 0 0 1 15.879-2.11 59.651 59.651 0 0 1 28.064 6.925c.96.584.044 2.108-.983 1.56a55.695 55.695 0 0 0-11.49-4.568 58.79 58.79 0 0 0-15.393-2.08l-.146-.001zM148.846 45.293a57.56 57.56 0 0 0-26.718 6.48c-.957.5-1.812-.78-1.158-1.425a.966.966 0 0 1 .231-.166 57.926 57.926 0 0 1 11.715-4.615 60.476 60.476 0 0 1 15.685-2.11c9.776-.031 19.553 2.279 28.204 6.895l.053.03c.9.547.153 1.918-.788 1.64a1.033 1.033 0 0 1-.195-.08 55.696 55.696 0 0 0-11.49-4.568 58.79 58.79 0 0 0-15.392-2.081h-.147zM141.82 56.143h-.004a1.845 1.845 0 0 0-.219.033 58.168 58.168 0 0 0-20.386 6.284.93.93 0 0 0-.454.8v22.9a.93.93 0 0 0 1.166.884 91.275 91.275 0 0 1 20.936-3.327 103.022 103.022 0 0 1 16.213.584c.112.006.225.018.336.036a45.289 45.289 0 0 1 1.154.141 107.985 107.985 0 0 1 6.302.984 134.392 134.392 0 0 1 1.839.353c2.482.497 4.95 1.062 7.401 1.695a.935.935 0 0 0 1.166-.89V63.43v-.005c0-.01-.001-.021-.006-.03a.79.79 0 0 0-.454-.763 60.39 60.39 0 0 0-34.839-6.505c-.049.005-.097.012-.151.016z" fill="#3f3d56" fill-rule="evenodd"/><path d="M144.572 58.294l.68.271a8.052 8.052 0 0 0-1.775-1.213 3.028 3.028 0 0 0-2.17-.19 2.572 2.572 0 0 0-1.445 1.359 6.54 6.54 0 0 0-.476 1.87c-.038.251-.04.568.21.688l.004.002a.538.538 0 0 0 .547-.108c.13-.13.24-.28.32-.447a4.86 4.86 0 0 1 4.105-2.232z" fill="#ff6582" fill-rule="evenodd"/><path d="M136.9 67.237l.003.03 6.36-.39c1.531-.094 3.116-.2 4.47-.846a4.214 4.214 0 0 1 1.596-.594c.71.038 1.376.359 1.849.89a18.196 18.196 0 0 1 3.095 4.33c1.087 1.896 2.159 3.792 3.972 5.138a89.305 89.305 0 0 0-7.539-13.349c-.413-.592-.895-1.184-1.557-1.502a2.399 2.399 0 0 0-.949-.237c-.968-.044-1.937.45-2.777.94a96.029 96.029 0 0 0-8.523 5.59zM142.85 83.716l-.43.019a38.713 38.713 0 0 0-5.223-1.467 38.192 38.192 0 0 0-6.982-.81.083.083 0 1 1 .009-.166c.196 0 .393.006.583.018 1.538.057 3.071.206 4.592.448a44.723 44.723 0 0 1 2.38.457 37.42 37.42 0 0 1 5.072 1.501zM160.553 84.481a4.958 4.958 0 0 0-.319-.042 24.677 24.677 0 0 0-3.026-2.148 30.623 30.623 0 0 0-4.076-2.075 40.643 40.643 0 0 0-6.887-2.174 68.544 68.544 0 0 0-8.146-1.277c-2.74-.264-5.484-.472-8.233-.626h-.004a.101.101 0 0 1-.04-.01c-.076-.037-.067-.167.04-.162l.514.034c.174.01.349.022.523.034 2.78.156 5.555.383 8.324.681 2.738.294 5.455.765 8.133 1.412a39.557 39.557 0 0 1 6.666 2.29 30.304 30.304 0 0 1 3.585 1.909c.727.457 1.431.948 2.111 1.473.286.218.564.446.835.681z" fill="#fff" fill-rule="evenodd"/><path d="M159.401 84.327a3.344 3.344 0 0 0-.337-.037 9.234 9.234 0 0 0-.4-.3 28.077 28.077 0 0 0-2.952-1.848 31.282 31.282 0 0 0-2.854-1.37 40.1 40.1 0 0 0-6.887-2.172 68.503 68.503 0 0 0-8.146-1.277 202.719 202.719 0 0 0-8.157-.62l-.08-.006a.107.107 0 0 1-.038-.01c-.077-.04-.065-.167.038-.162l.52.034.507.033a25.252 25.252 0 0 1 .064.004c2.762.156 5.52.382 8.27.678a63.45 63.45 0 0 1 8.133 1.412 39.352 39.352 0 0 1 6.666 2.29c.81.368 1.602.767 2.375 1.203a25.128 25.128 0 0 1 3.278 2.148z" fill="#fff" fill-rule="evenodd"/><path d="M168.694 85.81c-.098-.019-.196-.044-.294-.062a8.93 8.93 0 0 1-.32-.362c-.528-.608-1.05-1.222-1.565-1.842a121.021 121.021 0 0 1-5.776-7.452 118.058 118.058 0 0 1-4.438-6.647 107.488 107.488 0 0 1-1.946-3.241c-.489-.844-.967-1.693-1.436-2.548-.133-.244-.264-.49-.393-.736l-.3-.575a47.318 47.318 0 0 0-.62-1.156 4.892 4.892 0 0 0-1.486-1.768 2.174 2.174 0 0 0-1.056-.362 3.192 3.192 0 0 0-1.522.392 49.6 49.6 0 0 0-9.656 5.924 46.668 46.668 0 0 0-7.844 7.753.104.104 0 0 1-.03.024c-.08.042-.196-.03-.136-.11a68.105 68.105 0 0 1 .84-1.026 47.058 47.058 0 0 1 7.424-7.054c.005-.005.012-.009.018-.013a3.614 3.614 0 0 1 10.753-6.062c1.577-.023 2.446 1.443 3.048 2.581l.144.273c.19.362.386.724.577 1.086a111.442 111.442 0 0 0 2.301 4.076c.488.836.987 1.665 1.498 2.486a112.204 112.204 0 0 0 2.265 3.493 110.94 110.94 0 0 0 2.812 4.033 127.12 127.12 0 0 0 5.23 6.678 99.949 99.949 0 0 0 1.908 2.216z" fill="#fff" fill-rule="evenodd"/><path d="M146.802 58.703l-.17.074a4.633 4.633 0 0 0-3.743-2.265 5.18 5.18 0 0 0-.367-.013c-1.158 0-2.231.39-3.046 1.04a3.915 3.915 0 0 0-1.508 2.706 3.698 3.698 0 0 0 .747 2.573l-.157.093a3.85 3.85 0 0 1-.779-2.68 4.33 4.33 0 0 1 2.981-3.598 5.263 5.263 0 0 1 2.144-.29 4.825 4.825 0 0 1 3.898 2.36z" fill="#ff6582" fill-rule="evenodd"/><path d="M134.377 63.227a4.53 4.53 0 0 0-4.128.263c2.256.346 4.491.81 6.698 1.392a9.291 9.291 0 0 1-1.177-.774l-.015-.01a7.971 7.971 0 0 0-1.378-.87zM130.235 63.49l-.248.18c.084-.063.171-.123.261-.178l-.013-.002z" fill="#fff" fill-rule="evenodd"/><path d="M137.61 64.442l.099.098c.081.08.214-.039.134-.12a10.61 10.61 0 0 0-2.681-2.137 4.95 4.95 0 0 0-1.617-.498 4.615 4.615 0 0 0-1.753.153 8.354 8.354 0 0 0-1.16.42c-.165.071-.327.146-.488.222a37.627 37.627 0 0 0-6.415 3.869 35.585 35.585 0 0 0-1.303 1.026c-.067.068.036.166.12.125a.105.105 0 0 0 .022-.013 35.883 35.883 0 0 1 2.72-2.036 37.353 37.353 0 0 1 4.466-2.59c.277-.139.556-.272.838-.4.248-.111.5-.213.757-.305a5.195 5.195 0 0 1 1.709-.332c.565.005 1.125.12 1.646.34a8.62 8.62 0 0 1 2.708 1.981l.198.197z" fill="#fff" fill-rule="evenodd"/><path d="M45.987 41.605c13.836-4.415 29.273-3.246 42.38 2.973A55.803 55.803 0 0 1 98.9 51.064c.06.048.127.09.197.123.896.424 1.972-.744 1.105-1.425A60.32 60.32 0 0 0 57.86 37.345a57.94 57.94 0 0 0-12.361 2.484.966.966 0 0 0-.319.168c-.69.561-.199 1.929.808 1.608zM63.241 51.22a56.813 56.813 0 0 0-17.254 2.652 1.06 1.06 0 0 1-.133.034c-1.037.188-1.436-1.465-.356-1.81a57.94 57.94 0 0 1 12.36-2.483A60.32 60.32 0 0 1 100.2 62.03c.03.022.056.046.082.07.714.688-.32 1.765-1.186 1.355a1.037 1.037 0 0 1-.197-.123 55.803 55.803 0 0 0-10.532-6.486c-7.824-3.712-16.478-5.625-25.126-5.625zM45.987 66.15c13.836-4.414 29.273-3.245 42.38 2.974A55.803 55.803 0 0 1 98.9 75.61c.06.048.127.09.197.123.866.41 1.9-.667 1.186-1.354a1.064 1.064 0 0 0-.08-.07A60.32 60.32 0 0 0 57.858 61.89a57.94 57.94 0 0 0-12.361 2.484.966.966 0 0 0-.319.168c-.69.561-.199 1.929.808 1.607zM63.241 75.777a56.814 56.814 0 0 0-17.254 2.651 1.06 1.06 0 0 1-.133.034c-.916.166-1.335-1.105-.675-1.64a.966.966 0 0 1 .319-.17 57.946 57.946 0 0 1 12.36-2.483A60.32 60.32 0 0 1 100.2 86.586c.03.022.056.046.082.07.714.688-.32 1.765-1.186 1.355a1.037 1.037 0 0 1-.197-.123 55.8 55.8 0 0 0-10.532-6.486c-7.824-3.713-16.478-5.625-25.126-5.625zM45.987 90.707c13.836-4.414 29.273-3.245 42.38 2.974a55.797 55.797 0 0 1 10.532 6.486c.893.701 2.152-.491 1.383-1.231a1.064 1.064 0 0 0-.08-.07 60.32 60.32 0 0 0-42.343-12.418 57.938 57.938 0 0 0-12.361 2.484c-1.08.344-.68 1.996.356 1.809.045-.008.09-.02.133-.034z" fill="#3f3d56" fill-rule="evenodd"/><path d="M95.833 14.539v29.438a.667.667 0 0 1-.24.478c-.379.359-1.172.633-2.144.73a7.422 7.422 0 0 1-.052.006 9.593 9.593 0 0 1-.835.031 6.315 6.315 0 0 1-2.116-.365 3.732 3.732 0 0 1-.097-.041 3.732 3.732 0 0 0-.098-.041c-.06-.035-.126-.065-.186-.1a1.798 1.798 0 0 1-.252-.178c-.187-.16-.29-.335-.29-.52V12a41.55 41.55 0 0 1 6.31 2.54z" fill="#0e76bc" fill-rule="evenodd"/><path d="M108.17 21.37h.901v104.977h-.901V21.37z" fill="#e6e6e6" fill-rule="evenodd"/><path d="M210.942 87.688l18.712-8.735 11.265-18.222-8.855-3.575-7.6 14.684-19.234 12.818a4.416 4.416 0 0 0 1.877 8.565 4.392 4.392 0 0 0 3.835-5.535z" fill="#ffb6b6" fill-rule="evenodd"/><path d="M231.994 79.503l-8.894-7.058a5.517 5.517 0 0 1-.01-.177c-.08-2.367 1.516-2.635 2.503-2.561l.042.003 2.046-7.252 7.136-17.888 11.466-1.843 1.585.549s2.113.69-.066 4.728c-.049.09-.098.18-.149.27-.155.277-.307.557-.455.838-2.492 4.712-10.136 20.437-14.052 25.358-.226.288-.467.564-.722.826a3.442 3.442 0 0 1 .523 1.825c0 .887-.341 1.74-.953 2.382z" fill="#0e76bc" fill-rule="evenodd"/><path d="M238.675 7.038l-.101.148 6.21 4.752c.755.578 1.74 1.183 2.588.765l.02-.01c.162-.08.298-.205.394-.359.38-.62.078-1.656.255-2.5l.017-.074c.092-.317.234-.616.422-.888.831-1.303 2.104-2.497-2.177-4.441-1.268-.576-1.215-2.56-2.288-3.449A4.23 4.23 0 0 0 241.7.016a2.988 2.988 0 0 0-1.576.287 3.59 3.59 0 0 0-1.763 2.417 4.759 4.759 0 0 0-.111.63 11.222 11.222 0 0 0 .425 3.688z" fill="#2f2e41" fill-rule="evenodd"/></g></svg>