<svg width="580" height="287.18" viewBox="0 0 290 143.59" xmlns="http://www.w3.org/2000/svg"><g><path d="M166.275 126.98h100.57a5.887 5.887 0 0 0-5.166-3.07H61.775c-5.431.006-9.83 4.41-9.83 9.841.003 5.43 4.4 9.832 9.83 9.842h199.904a5.887 5.887 0 0 0 5.166-3.071h-100.57a6.77 6.77 0 1 1 0-13.541z" fill="#ccc" fill-rule="evenodd"/><path d="M266.984 130.71h-95.618a.553.553 0 1 1 0-1.105h95.618a.553.553 0 1 1 0 1.106zM266.984 134.304h-95.618a.553.553 0 1 1 0-1.106h95.618a.553.553 0 1 1 0 1.106zM266.984 137.908h-95.618a.553.553 0 1 1 0-1.106h95.618a.553.553 0 1 1 0 1.106z" fill="#ccc" fill-rule="evenodd"/><path d="M140.307 107.92h100.57a5.887 5.887 0 0 0-5.166-3.07H35.806c-5.43.006-9.829 4.41-9.829 9.84.002 5.43 4.4 9.833 9.83 9.843H235.71a5.887 5.887 0 0 0 5.165-3.071H140.307a6.77 6.77 0 0 1 0-13.541z" fill="#0e76bc" fill-rule="evenodd"/><path d="M241.006 111.64h-95.618a.553.553 0 0 1 0-1.105h95.618a.553.553 0 1 1 0 1.106zM241.006 115.234h-95.618a.553.553 0 0 1 0-1.106h95.618a.553.553 0 1 1 0 1.106zM241.006 118.837h-95.618a.553.553 0 0 1 0-1.106h95.618a.553.553 0 1 1 0 1.106zM114.33 88.21h100.569a5.887 5.887 0 0 0-5.166-3.07H9.83c-5.43.006-9.83 4.41-9.83 9.84v.001c.003 5.43 4.4 9.832 9.83 9.842h199.904a5.887 5.887 0 0 0 5.166-3.071h-100.57a6.77 6.77 0 0 1 0-13.542z" fill="#ccc" fill-rule="evenodd"/><path d="M215.028 91.94H119.41a.553.553 0 1 1 0-1.105h95.618a.553.553 0 1 1 0 1.106zM215.028 95.534H119.41a.553.553 0 1 1 0-1.106h95.618a.553.553 0 1 1 0 1.106zM215.028 99.127H119.41a.553.553 0 1 1 0-1.106h95.618a.553.553 0 0 1 0 1.106z" fill="#ccc" fill-rule="evenodd"/><path d="M215.183 57.788l-.307-4.685a2.068 2.068 0 0 1 1.928-2.198l36.708-2.405a4.416 4.416 0 0 1 .577 8.812l-36.707 2.404a2.068 2.068 0 0 1-2.198-1.928z" fill="#0e76bc" fill-rule="evenodd"/><path d="M222.414 58.327l-.262-6.998a2.068 2.068 0 0 1 1.99-2.143l30.184-1.128.079-.002c1.111.001 2.023.88 2.065 1.991l.262 6.998.001.079c0 1.111-.88 2.023-1.99 2.065l-30.186 1.128a2.07 2.07 0 0 1-2.144-1.99zM259.854 124.826h-4.695a2.07 2.07 0 0 1-2.068-2.068V83.625a2.07 2.07 0 0 1 2.068-2.068h4.695a2.07 2.07 0 0 1 2.068 2.068v39.133a2.07 2.07 0 0 1-2.068 2.068z" fill="#2f2e41" fill-rule="evenodd"/><path d="M239.018 104.147l-4.015-2.434a2.07 2.07 0 0 1-.697-2.84l20.285-33.466c.273-.45.707-.779 1.215-.919a2.064 2.064 0 0 1 1.625.223l4.015 2.434c.448.271.776.703.918 1.207.15.532.087 1.122-.221 1.633l-20.285 33.466c-.273.45-.707.779-1.215.919a2.064 2.064 0 0 1-1.625-.223z" fill="#2f2e41" fill-rule="evenodd"/><path d="M236.5 24.494c0-8.96 7.264-16.224 16.224-16.224s16.224 7.264 16.224 16.224-7.263 16.224-16.224 16.224c-8.96 0-16.224-7.263-16.224-16.224z" fill="#0e76bc" fill-rule="evenodd"/><path d="M244.695 25.798l-.03-6.334.636-.003.036 7.446-.49-.308c-.57-.357-1.381-.609-1.955-.24a1.117 1.117 0 0 0-.484.864 1.957 1.957 0 0 0 .563 1.528c.416.373.917.638 1.46.772a11.65 11.65 0 0 0 1.436.296l-.1.628a10.487 10.487 0 0 1-1.83-.411c-.523-.172-1.002-.453-1.406-.825a2.587 2.587 0 0 1-.756-2.048c.034-.543.32-1.039.774-1.34.455-.292 1.032-.356 1.64-.2.174.044.343.102.506.175zM238.035 19.784l.083-.63 3.393.446-.083.63-3.393-.446zM248.756 21.194l.082-.63 3.393.446-.083.63-3.392-.446zM266.261 94.121h-27.358a2.707 2.707 0 0 1-2.704-2.704l5.728-43.921a2.7 2.7 0 0 1 2.702-2.684h9.71c8.074.01 14.617 6.553 14.627 14.628v31.977a2.707 2.707 0 0 1-2.705 2.704z" fill="#2f2e41" fill-rule="evenodd"/><path d="M289.5 79.044l-3.07 3.553a2.065 2.065 0 0 1-2.916.213l-27.837-24.05a4.395 4.395 0 0 1-1.42-2.363 4.416 4.416 0 0 1 7.193-4.318l27.836 24.048A2.054 2.054 0 0 1 290 77.61a2.07 2.07 0 0 1-.5 1.435z" fill="#0e76bc" fill-rule="evenodd"/><path d="M283.354 71.12l-5.243 6.068a2.067 2.067 0 0 1-2.917.213l-22.857-19.748a2.065 2.065 0 0 1-.213-2.917l5.244-6.068a2.065 2.065 0 0 1 2.916-.213l22.857 19.748a2.058 2.058 0 0 1 .716 1.564c0 .496-.178.976-.503 1.352zM245.506 14.533c.17.017.34.025.512.024 2.336 0 4.989-1.357 7.009.314.453.376-.035 1.122-.495.821a.55.55 0 0 1-.05-.037 2.844 2.844 0 0 0-1.689-.645c-1.366-.09-2.715.352-4.069.464a6.076 6.076 0 0 1-3.645-.772 7.074 7.074 0 0 1-3.42-6.28 8.774 8.774 0 0 1 4.117-6.743C245.583.505 247.726 0 249.867 0c.747 0 1.493.06 2.23.179a22.176 22.176 0 0 1 8.936 3.934 37.564 37.564 0 0 1 7.003 5.963 15.036 15.036 0 0 1 3.791 7.463c.403 2.6-.01 5.426-1.526 7.621a8.596 8.596 0 0 1-3.103 2.673c-.56.29-1.131.56-1.71.81-.758.338-1.516.675-2.229 1.1a5.177 5.177 0 0 0-2.253 2.574c-.1.26-.17.529-.212.804-.104.723.038 1.447.575 2.021a.583.583 0 0 1 .011.012c.397.448-.323 1.05-.739.606a3.114 3.114 0 0 1-.733-1.32c-.618-2.257 1.124-4.47 2.938-5.557a20.592 20.592 0 0 1 2.226-1.1c.519-.231 1.038-.462 1.543-.722a7.701 7.701 0 0 0 2.966-2.54 9.085 9.085 0 0 0 1.44-4.97c.008-.795-.07-1.59-.225-2.357a14.913 14.913 0 0 0-4.01-7.073 38.756 38.756 0 0 0-6.929-5.65c-2.612-1.722-5.513-3.132-8.662-3.449a13.094 13.094 0 0 0-1.29-.066h-.02a9.893 9.893 0 0 0-6.467 2.174 7.575 7.575 0 0 0-2.81 5.59 5.767 5.767 0 0 0 .148 1.297 5.801 5.801 0 0 0 4.75 4.517zM234.872 98.026l3.946-2.545a2.07 2.07 0 0 1 2.859.617l12.17 18.87c.62.96.344 2.24-.616 2.86l-3.946 2.544a2.07 2.07 0 0 1-2.858-.617l-12.172-18.87a2.053 2.053 0 0 1-.283-1.558 2.054 2.054 0 0 1 .9-1.301z" fill="#2f2e41" fill-rule="evenodd"/></g></svg>